<?xml version="1.0" encoding="UTF-8" standalone="no"?>
<!-- Created with Inkscape (http://www.inkscape.org/) -->

<svg
   xmlns:dc="http://purl.org/dc/elements/1.1/"
   xmlns:cc="http://creativecommons.org/ns#"
   xmlns:rdf="http://www.w3.org/1999/02/22-rdf-syntax-ns#"
   xmlns:svg="http://www.w3.org/2000/svg"
   xmlns="http://www.w3.org/2000/svg"
   xmlns:sodipodi="http://sodipodi.sourceforge.net/DTD/sodipodi-0.dtd"
   xmlns:inkscape="http://www.inkscape.org/namespaces/inkscape"
   sodipodi:docname="rnn.svg"
   inkscape:version="0.91 r13725"
   version="1.1"
   id="svg4303"
   viewBox="0 0 744.09448819 1052.3622047"
   height="297mm"
   width="210mm"
   inkscape:export-filename="/home/zaka/projects/muia-tfm-document/gfx/rnn.png"
   inkscape:export-xdpi="190"
   inkscape:export-ydpi="190">
  <sodipodi:namedview
     inkscape:window-maximized="1"
     inkscape:window-y="24"
     inkscape:window-x="0"
     inkscape:window-height="1056"
     inkscape:window-width="1920"
     showgrid="false"
     inkscape:current-layer="layer2"
     inkscape:document-units="px"
     inkscape:cy="691.0785"
     inkscape:cx="354.51879"
     inkscape:zoom="1.4142136"
     inkscape:pageshadow="2"
     inkscape:pageopacity="0.0"
     borderopacity="1.0"
     bordercolor="#666666"
     pagecolor="#ffffff"
     id="base" />
  <defs
     id="defs4305">
    <marker
       inkscape:stockid="Arrow1Lend"
       orient="auto"
       refY="0.0"
       refX="0.0"
       id="marker5817"
       style="overflow:visible;"
       inkscape:isstock="true">
      <path
         id="path5819"
         d="M 0.0,0.0 L 5.0,-5.0 L -12.5,0.0 L 5.0,5.0 L 0.0,0.0 z "
         style="fill-rule:evenodd;stroke:#000000;stroke-width:1pt;stroke-opacity:1;fill:#000000;fill-opacity:1"
         transform="scale(0.8) rotate(180) translate(12.5,0)" />
    </marker>
    <marker
       inkscape:collect="always"
       inkscape:isstock="true"
       style="overflow:visible;"
       id="marker5705"
       refX="0.0"
       refY="0.0"
       orient="auto"
       inkscape:stockid="Arrow1Lend">
      <path
         transform="scale(0.8) rotate(180) translate(12.5,0)"
         style="fill-rule:evenodd;stroke:#000000;stroke-width:1pt;stroke-opacity:1;fill:#000000;fill-opacity:1"
         d="M 0.0,0.0 L 5.0,-5.0 L -12.5,0.0 L 5.0,5.0 L 0.0,0.0 z "
         id="path5707" />
    </marker>
    <marker
       inkscape:collect="always"
       inkscape:isstock="true"
       style="overflow:visible;"
       id="Arrow1Lend"
       refX="0.0"
       refY="0.0"
       orient="auto"
       inkscape:stockid="Arrow1Lend">
      <path
         transform="scale(0.8) rotate(180) translate(12.5,0)"
         style="fill-rule:evenodd;stroke:#000000;stroke-width:1pt;stroke-opacity:1;fill:#000000;fill-opacity:1"
         d="M 0.0,0.0 L 5.0,-5.0 L -12.5,0.0 L 5.0,5.0 L 0.0,0.0 z "
         id="path4877" />
    </marker>
  </defs>
  <metadata
     id="metadata4308">
    <rdf:RDF>
      <cc:Work
         rdf:about="">
        <dc:format>image/svg+xml</dc:format>
        <dc:type
           rdf:resource="http://purl.org/dc/dcmitype/StillImage" />
        <dc:title />
      </cc:Work>
    </rdf:RDF>
  </metadata>
  <g
     id="layer1"
     inkscape:groupmode="layer"
     inkscape:label="Layer 1">
    <circle
       r="45.961941"
       cy="455.36206"
       cx="373.25137"
       id="path4851"
       style="fill:none;fill-opacity:1;stroke:#000000;stroke-width:1.5;stroke-miterlimit:4;stroke-dasharray:none;stroke-opacity:1" />
    <circle
       r="45.961941"
       cy="455.36206"
       cx="97.984795"
       id="path4851-3"
       style="fill:none;fill-opacity:1;stroke:#000000;stroke-width:1.5;stroke-miterlimit:4;stroke-dasharray:none;stroke-opacity:1" />
    <path
       inkscape:connection-end="#path4851"
       inkscape:connection-start="#path4851-3"
       inkscape:connector-curvature="0"
       inkscape:connector-type="polyline"
       id="path4868"
       d="m 143.94674,455.36206 183.34269,0"
       style="fill:none;fill-rule:evenodd;stroke:#000000;stroke-width:1.5;stroke-linecap:butt;stroke-linejoin:miter;stroke-miterlimit:4;stroke-dasharray:none;stroke-opacity:1;marker-end:url(#Arrow1Lend)" />
    <path
       inkscape:connection-start="#path4851"
       inkscape:connector-curvature="0"
       inkscape:connector-type="polyline"
       id="path5697"
       d="m 419.21196,455.14188 132.9309,-0.63682"
       style="fill:none;fill-rule:evenodd;stroke:#000000;stroke-width:1.5;stroke-linecap:butt;stroke-linejoin:miter;stroke-miterlimit:4;stroke-dasharray:none;stroke-opacity:1;marker-end:url(#marker5705)" />
    <path
       style="fill:none;fill-rule:evenodd;stroke:#000000;stroke-width:1.5;stroke-linecap:butt;stroke-linejoin:miter;stroke-opacity:1;marker-end:url(#marker5817);stroke-miterlimit:4;stroke-dasharray:none"
       d="m 401.35418,418.99371 c 0,0 45.73458,-50.41796 26.79897,-84.34491 -18.93561,-33.92694 -74.97565,-31.70664 -96.52007,-0.70711 -21.54442,30.99954 18.67549,81.59512 18.67549,81.59512"
       id="path6875"
       inkscape:connector-type="polyline"
       inkscape:connector-curvature="0"
       inkscape:connection-start="#path4851"
       sodipodi:nodetypes="czzc" />
  </g>
  <g
     style="display:inline"
     inkscape:label="labels"
     id="layer2"
     inkscape:groupmode="layer">
    <g
       id="g6059"
       transform="translate(-112.21772,74.246211)">
      <g
         word-spacing="normal"
         letter-spacing="normal"
         font-size-adjust="none"
         font-stretch="normal"
         font-weight="normal"
         font-variant="normal"
         font-style="normal"
         stroke-miterlimit="10.433"
         xml:space="preserve"
         transform="matrix(1.0629921,0,0,-1.0629921,-186.02362,789.27165)"
         id="content"
         style="font-style:normal;font-variant:normal;font-weight:normal;font-stretch:normal;letter-spacing:normal;word-spacing:normal;text-anchor:start;fill:none;fill-opacity:1;fill-rule:evenodd;stroke:#000000;stroke-linecap:butt;stroke-linejoin:miter;stroke-miterlimit:10.43299961;stroke-dasharray:none;stroke-dashoffset:0;stroke-opacity:1"><path
           id="path6062"
           d="m 501.68,434.24 0.23,0.41 0.24,0.39 0.24,0.39 0.25,0.37 0.12,0.17 0.13,0.18 0.14,0.17 0.14,0.16 0.14,0.16 0.14,0.16 0.15,0.15 0.16,0.14 0.16,0.14 0.17,0.13 0.17,0.13 0.18,0.12 0.19,0.11 0.2,0.11 0.2,0.1 0.21,0.09 0.22,0.09 0.23,0.07 0.23,0.07 0.25,0.06 0.26,0.06 0.26,0.04 0.28,0.04 0.29,0.03 c 0.45,0.05 0.94,0.05 0.94,0.99 0,0.2 -0.2,0.55 -0.59,0.55 l -9.02,0 c -0.3,0 -0.95,0 -0.95,-0.95 0,-0.54 0.45,-0.59 0.75,-0.59 1.2,-0.05 2.94,-0.45 2.94,-1.94 0,-0.55 -0.25,-0.95 -0.65,-1.65 l -13.45,-23.46 -1.84,24.71 c -0.05,0.99 -0.15,2.29 3.49,2.34 0.84,0 1.34,0 1.34,0.99 0,0.5 -0.55,0.55 -0.75,0.55 l -11.3,0 c -0.3,0 -0.95,0 -0.95,-0.99 0,-0.55 0.5,-0.55 1.19,-0.55 2.2,0 2.55,-0.3 2.64,-1.25 l 0.31,-3.83 -12.61,-21.97 -1.89,25.25 c 0,0.6 0,1.75 3.78,1.8 0.5,0 1.05,0 1.05,0.99 0,0.55 -0.6,0.55 -0.7,0.55 l -11.35,0 c -0.25,0 -0.9,0 -0.9,-0.95 0,-0.59 0.45,-0.59 1.24,-0.59 2.5,0 2.55,-0.45 2.64,-1.84 l 2.25,-30.44 c 0.05,-0.9 0.09,-1.3 0.79,-1.3 0.6,0 0.75,0.3 1.2,1.05 l 14.64,25.41 1.85,-25.16 c 0.1,-1.05 0.2,-1.3 0.79,-1.3 0.65,0 0.95,0.5 1.2,0.95 z"
           inkscape:connector-curvature="0"
           style="fill:#000000;stroke-width:0" /><path
           id="path6064"
           d="m 514.3,420.79 0,0.06 -0.01,0.05 0,0.05 -0.01,0.06 -0.01,0.06 -0.02,0.05 -0.01,0.06 -0.02,0.06 -0.03,0.05 -0.02,0.06 -0.03,0.05 -0.03,0.06 -0.03,0.05 -0.03,0.05 -0.04,0.05 -0.04,0.05 -0.05,0.05 -0.04,0.05 -0.05,0.04 -0.06,0.05 -0.05,0.04 -0.06,0.03 -0.06,0.04 -0.07,0.03 -0.07,0.03 -0.07,0.02 -0.07,0.02 -0.08,0.02 -0.08,0.02 -0.08,0.01 -0.09,0 -0.09,0.01 c -0.94,0 -1.95,-0.91 -1.95,-1.92 0,-0.59 0.45,-1.32 1.39,-1.32 1.01,0 1.96,0.97 1.96,1.91 z"
           inkscape:connector-curvature="0"
           style="fill:#000000;stroke-width:0" /><path
           id="path6066"
           d="m 507.18,403.08 -0.05,-0.17 -0.05,-0.17 -0.03,-0.08 -0.03,-0.09 -0.02,-0.08 -0.03,-0.09 -0.02,-0.09 -0.02,-0.09 -0.01,-0.1 -0.02,-0.09 -0.01,-0.1 -0.01,-0.05 0,-0.05 0,-0.05 -0.01,-0.06 0,-0.05 0,-0.06 c 0,-1.63 1.4,-2.96 3.31,-2.96 3.49,0 5.02,4.81 5.02,5.33 0,0.46 -0.45,0.46 -0.55,0.46 -0.49,0 -0.53,-0.21 -0.67,-0.59 -0.8,-2.79 -2.33,-4.22 -3.69,-4.22 -0.7,0 -0.88,0.45 -0.88,1.22 0,0.8 0.25,1.46 0.56,2.23 0.35,0.94 0.74,1.88 1.12,2.79 0.31,0.84 1.57,4.01 1.71,4.43 0.1,0.34 0.21,0.77 0.21,1.11 0,1.64 -1.4,2.97 -3.31,2.97 -3.46,0 -5.06,-4.74 -5.06,-5.34 0,-0.45 0.49,-0.45 0.59,-0.45 0.49,0 0.52,0.17 0.63,0.56 0.91,2.99 2.44,4.25 3.73,4.25 0.56,0 0.87,-0.28 0.87,-1.22 0,-0.8 -0.21,-1.32 -1.08,-3.48 z"
           inkscape:connector-curvature="0"
           style="fill:#000000;stroke-width:0" /><path
           id="path6068"
           d="m 532.31,420.79 0,0.06 -0.01,0.06 0,0.05 -0.01,0.06 -0.01,0.06 -0.02,0.06 -0.02,0.05 -0.02,0.06 -0.02,0.06 -0.03,0.05 -0.02,0.06 -0.03,0.05 -0.04,0.06 -0.03,0.05 -0.04,0.05 -0.05,0.05 -0.04,0.04 -0.05,0.05 -0.05,0.04 -0.05,0.04 -0.06,0.04 -0.06,0.04 -0.06,0.03 -0.06,0.03 -0.07,0.03 -0.07,0.03 -0.07,0.02 -0.08,0.01 -0.07,0.02 -0.09,0.01 -0.08,0 -0.09,0.01 c -1.01,0 -1.95,-0.98 -1.95,-1.92 0,-0.56 0.42,-1.32 1.39,-1.32 0.95,0 1.96,0.9 1.96,1.91 z"
           inkscape:connector-curvature="0"
           style="fill:#000000;stroke-width:0" /><path
           id="path6070"
           d="m 524.91,397.29 -0.05,-0.22 -0.07,-0.22 -0.07,-0.22 -0.08,-0.22 -0.09,-0.21 -0.09,-0.21 -0.1,-0.2 -0.11,-0.2 -0.11,-0.2 -0.12,-0.19 -0.12,-0.19 -0.13,-0.18 -0.13,-0.17 -0.14,-0.17 -0.14,-0.16 -0.14,-0.15 -0.16,-0.15 -0.15,-0.14 -0.16,-0.13 -0.16,-0.13 -0.17,-0.12 -0.17,-0.1 -0.17,-0.1 -0.18,-0.09 -0.17,-0.08 -0.18,-0.07 -0.19,-0.07 -0.18,-0.05 -0.19,-0.03 -0.19,-0.03 -0.19,-0.02 -0.19,-0.01 c -0.45,0 -0.87,0.07 -1.26,0.21 0.91,0.42 1.19,1.26 1.19,1.78 0,0.84 -0.67,1.29 -1.36,1.29 -1.08,0 -1.99,-0.94 -1.99,-2.06 0,-1.32 1.36,-2.19 3.45,-2.19 2.09,0 6.17,1.25 7.25,5.5 l 3.14,12.49 c 0.11,0.38 0.18,0.7 0.18,1.22 0,1.92 -1.64,3.28 -3.74,3.28 -3.87,0 -6.1,-4.85 -6.1,-5.34 0,-0.45 0.49,-0.45 0.6,-0.45 0.42,0 0.45,0.11 0.69,0.62 0.88,2.03 2.69,4.19 4.71,4.19 0.87,0 1.19,-0.59 1.19,-1.71 0,-0.38 -0.07,-0.87 -0.11,-1.05 z"
           inkscape:connector-curvature="0"
           style="fill:#000000;stroke-width:0" /></g>    </g>
    <g
       transform="translate(31.819805,-73.539104)"
       id="g6278">
      <g
         style="font-style:normal;font-variant:normal;font-weight:normal;font-stretch:normal;letter-spacing:normal;word-spacing:normal;text-anchor:start;fill:none;fill-opacity:1;fill-rule:evenodd;stroke:#000000;stroke-linecap:butt;stroke-linejoin:miter;stroke-miterlimit:10.43299961;stroke-dasharray:none;stroke-dashoffset:0;stroke-opacity:1"
         id="g6280"
         transform="matrix(1.0629921,0,0,-1.0629921,-186.02362,789.27165)"
         xml:space="preserve"
         stroke-miterlimit="10.433"
         font-style="normal"
         font-variant="normal"
         font-weight="normal"
         font-stretch="normal"
         font-size-adjust="none"
         letter-spacing="normal"
         word-spacing="normal"><path
           style="fill:#000000;stroke-width:0"
           inkscape:connector-curvature="0"
           d="m 501.68,434.24 0.23,0.41 0.24,0.39 0.24,0.39 0.25,0.37 0.12,0.17 0.13,0.18 0.14,0.17 0.14,0.16 0.14,0.16 0.14,0.16 0.15,0.15 0.16,0.14 0.16,0.14 0.17,0.13 0.17,0.13 0.18,0.12 0.19,0.11 0.2,0.11 0.2,0.1 0.21,0.09 0.22,0.09 0.23,0.07 0.23,0.07 0.25,0.06 0.26,0.06 0.26,0.04 0.28,0.04 0.29,0.03 c 0.45,0.05 0.94,0.05 0.94,0.99 0,0.2 -0.2,0.55 -0.59,0.55 l -9.02,0 c -0.3,0 -0.95,0 -0.95,-0.95 0,-0.54 0.45,-0.59 0.75,-0.59 1.2,-0.05 2.94,-0.45 2.94,-1.94 0,-0.55 -0.25,-0.95 -0.65,-1.65 l -13.45,-23.46 -1.84,24.71 c -0.05,0.99 -0.15,2.29 3.49,2.34 0.84,0 1.34,0 1.34,0.99 0,0.5 -0.55,0.55 -0.75,0.55 l -11.3,0 c -0.3,0 -0.95,0 -0.95,-0.99 0,-0.55 0.5,-0.55 1.19,-0.55 2.2,0 2.55,-0.3 2.64,-1.25 l 0.31,-3.83 -12.61,-21.97 -1.89,25.25 c 0,0.6 0,1.75 3.78,1.8 0.5,0 1.05,0 1.05,0.99 0,0.55 -0.6,0.55 -0.7,0.55 l -11.35,0 c -0.25,0 -0.9,0 -0.9,-0.95 0,-0.59 0.45,-0.59 1.24,-0.59 2.5,0 2.55,-0.45 2.64,-1.84 l 2.25,-30.44 c 0.05,-0.9 0.09,-1.3 0.79,-1.3 0.6,0 0.75,0.3 1.2,1.05 l 14.64,25.41 1.85,-25.16 c 0.1,-1.05 0.2,-1.3 0.79,-1.3 0.65,0 0.95,0.5 1.2,0.95 z"
           id="path6282" /><path
           style="fill:#000000;stroke-width:0"
           inkscape:connector-curvature="0"
           d="m 518.31,420.79 0,0.06 -0.01,0.06 0,0.05 -0.01,0.06 -0.01,0.06 -0.02,0.06 -0.02,0.05 -0.02,0.06 -0.02,0.06 -0.03,0.05 -0.02,0.06 -0.03,0.05 -0.04,0.06 -0.03,0.05 -0.04,0.05 -0.05,0.05 -0.04,0.04 -0.05,0.05 -0.05,0.04 -0.05,0.04 -0.06,0.04 -0.06,0.04 -0.06,0.03 -0.06,0.03 -0.07,0.03 -0.07,0.03 -0.07,0.02 -0.08,0.01 -0.07,0.02 -0.09,0.01 -0.08,0 -0.09,0.01 c -1.01,0 -1.95,-0.98 -1.95,-1.92 0,-0.56 0.42,-1.32 1.39,-1.32 0.95,0 1.96,0.9 1.96,1.91 z"
           id="path6284" /><path
           style="fill:#000000;stroke-width:0"
           inkscape:connector-curvature="0"
           d="m 510.91,397.29 -0.05,-0.22 -0.07,-0.22 -0.07,-0.22 -0.08,-0.22 -0.09,-0.21 -0.09,-0.21 -0.1,-0.2 -0.11,-0.2 -0.11,-0.2 -0.12,-0.19 -0.12,-0.19 -0.13,-0.18 -0.13,-0.17 -0.14,-0.17 -0.14,-0.16 -0.14,-0.15 -0.16,-0.15 -0.15,-0.14 -0.16,-0.13 -0.16,-0.13 -0.17,-0.12 -0.17,-0.1 -0.17,-0.1 -0.18,-0.09 -0.17,-0.08 -0.18,-0.07 -0.19,-0.07 -0.18,-0.05 -0.19,-0.03 -0.19,-0.03 -0.19,-0.02 -0.19,-0.01 c -0.46,0 -0.87,0.07 -1.26,0.21 0.91,0.42 1.19,1.26 1.19,1.78 0,0.84 -0.67,1.29 -1.36,1.29 -1.08,0 -1.99,-0.94 -1.99,-2.06 0,-1.32 1.36,-2.19 3.45,-2.19 2.09,0 6.17,1.25 7.25,5.5 l 3.14,12.49 c 0.11,0.38 0.18,0.7 0.18,1.22 0,1.92 -1.64,3.28 -3.74,3.28 -3.87,0 -6.1,-4.85 -6.1,-5.34 0,-0.45 0.49,-0.45 0.6,-0.45 0.42,0 0.45,0.11 0.69,0.62 0.88,2.03 2.69,4.19 4.71,4.19 0.87,0 1.19,-0.59 1.19,-1.71 0,-0.38 -0.07,-0.87 -0.11,-1.05 z"
           id="path6286" /><path
           style="fill:#000000;stroke-width:0"
           inkscape:connector-curvature="0"
           d="m 536.31,420.79 0,0.06 -0.01,0.06 0,0.05 -0.01,0.06 -0.01,0.06 -0.02,0.06 -0.02,0.05 -0.02,0.06 -0.02,0.06 -0.03,0.05 -0.02,0.06 -0.03,0.05 -0.04,0.06 -0.03,0.05 -0.04,0.05 -0.05,0.05 -0.04,0.04 -0.05,0.05 -0.05,0.04 -0.05,0.04 -0.06,0.04 -0.06,0.04 -0.06,0.03 -0.06,0.03 -0.07,0.03 -0.07,0.03 -0.07,0.02 -0.08,0.01 -0.07,0.02 -0.09,0.01 -0.08,0 -0.09,0.01 c -1.01,0 -1.95,-0.98 -1.95,-1.92 0,-0.56 0.42,-1.32 1.39,-1.32 0.95,0 1.96,0.9 1.96,1.91 z"
           id="path6288" /><path
           style="fill:#000000;stroke-width:0"
           inkscape:connector-curvature="0"
           d="m 528.91,397.29 -0.05,-0.22 -0.07,-0.22 -0.07,-0.22 -0.08,-0.22 -0.09,-0.21 -0.09,-0.21 -0.1,-0.2 -0.11,-0.2 -0.11,-0.2 -0.12,-0.19 -0.12,-0.19 -0.13,-0.18 -0.13,-0.17 -0.14,-0.17 -0.14,-0.16 -0.14,-0.15 -0.16,-0.15 -0.15,-0.14 -0.16,-0.13 -0.16,-0.13 -0.17,-0.12 -0.17,-0.1 -0.17,-0.1 -0.18,-0.09 -0.17,-0.08 -0.18,-0.07 -0.19,-0.07 -0.18,-0.05 -0.19,-0.03 -0.19,-0.03 -0.19,-0.02 -0.19,-0.01 c -0.45,0 -0.87,0.07 -1.26,0.21 0.91,0.42 1.19,1.26 1.19,1.78 0,0.84 -0.67,1.29 -1.36,1.29 -1.08,0 -1.99,-0.94 -1.99,-2.06 0,-1.32 1.36,-2.19 3.45,-2.19 2.09,0 6.17,1.25 7.25,5.5 l 3.14,12.49 c 0.11,0.38 0.18,0.7 0.18,1.22 0,1.92 -1.64,3.28 -3.74,3.28 -3.87,0 -6.1,-4.85 -6.1,-5.34 0,-0.45 0.49,-0.45 0.6,-0.45 0.42,0 0.45,0.11 0.69,0.62 0.88,2.03 2.69,4.19 4.71,4.19 0.87,0 1.19,-0.59 1.19,-1.71 0,-0.38 -0.07,-0.87 -0.11,-1.05 z"
           id="path6290" /></g>    </g>
    <g
       transform="translate(35.61851,117.3029)"
       id="g6436">
      <g
         style="font-style:normal;font-variant:normal;font-weight:normal;font-stretch:normal;letter-spacing:normal;word-spacing:normal;text-anchor:start;fill:none;fill-opacity:1;fill-rule:evenodd;stroke:#000000;stroke-linecap:butt;stroke-linejoin:miter;stroke-miterlimit:10.43299961;stroke-dasharray:none;stroke-dashoffset:0;stroke-opacity:1"
         id="g6438"
         transform="matrix(1.0629921,0,0,-1.0629921,-186.02362,789.27165)"
         xml:space="preserve"
         stroke-miterlimit="10.433"
         font-style="normal"
         font-variant="normal"
         font-weight="normal"
         font-stretch="normal"
         font-size-adjust="none"
         letter-spacing="normal"
         word-spacing="normal"><path
           style="fill:#000000;stroke-width:0"
           inkscape:connector-curvature="0"
           d="m 470.3,440.02 0,0.01 0,0 0,0.01 0,0.01 0,0.01 -0.01,0.01 0,0.02 0,0.02 0,0.02 -0.01,0.02 0,0.02 -0.01,0.02 -0.01,0.03 -0.01,0.02 -0.01,0.03 -0.01,0.02 -0.01,0.02 -0.02,0.03 -0.02,0.02 -0.02,0.03 -0.02,0.02 -0.01,0.01 -0.02,0.01 -0.01,0.01 -0.01,0.01 -0.02,0.01 -0.01,0.01 -0.02,0.01 -0.02,0.01 -0.01,0.01 -0.02,0.01 -0.02,0.01 -0.02,0 -0.02,0.01 -0.02,0.01 -0.02,0 -0.03,0.01 -0.02,0 -0.03,0.01 -0.02,0 -0.03,0 -0.02,0.01 -0.03,0 -0.03,0 -0.03,0 c -1.15,0 -4.78,-0.4 -6.08,-0.5 -0.4,-0.05 -0.95,-0.1 -0.95,-1 0,-0.59 0.45,-0.59 1.2,-0.59 2.39,0 2.49,-0.35 2.49,-0.85 l -0.15,-0.99 -7.22,-28.7 c -0.2,-0.69 -0.2,-0.8 -0.2,-1.09 0,-1.15 0.99,-1.4 1.44,-1.4 0.8,0 1.6,0.6 1.85,1.3 l 0.94,3.78 1.1,4.49 c 0.3,1.09 0.6,2.19 0.85,3.34 0.1,0.29 0.49,1.94 0.54,2.23 0.15,0.45 1.7,3.24 3.39,4.59 1.1,0.8 2.64,1.74 4.78,1.74 2.15,0 2.69,-1.69 2.69,-3.49 0,-2.68 -1.89,-8.11 -3.09,-11.15 -0.39,-1.15 -0.64,-1.75 -0.64,-2.74 0,-2.34 1.74,-4.09 4.08,-4.09 4.69,0 6.53,7.28 6.53,7.67 0,0.5 -0.45,0.5 -0.6,0.5 -0.5,0 -0.5,-0.15 -0.75,-0.89 -0.74,-2.64 -2.34,-6.18 -5.08,-6.18 -0.84,0 -1.19,0.5 -1.19,1.64 0,1.25 0.44,2.44 0.89,3.54 0.8,2.14 3.04,8.07 3.04,10.96 0,3.24 -1.99,5.33 -5.72,5.33 -3.15,0 -5.54,-1.55 -7.38,-3.84 z"
           id="path6440" /><path
           style="fill:#000000;stroke-width:0"
           inkscape:connector-curvature="0"
           d="m 496.38,450.15 -0.61,-0.44 -0.58,-0.46 -0.55,-0.48 -0.52,-0.49 -0.5,-0.5 -0.47,-0.51 -0.45,-0.52 -0.42,-0.54 -0.4,-0.54 -0.38,-0.55 -0.35,-0.56 -0.33,-0.56 -0.31,-0.57 -0.29,-0.57 -0.26,-0.58 -0.25,-0.58 -0.23,-0.58 -0.2,-0.58 -0.19,-0.59 -0.18,-0.58 -0.15,-0.58 -0.14,-0.58 -0.12,-0.57 -0.11,-0.58 -0.1,-0.56 -0.07,-0.56 -0.07,-0.55 -0.05,-0.55 -0.04,-0.54 -0.03,-0.52 -0.01,-0.52 -0.01,-0.51 c 0,-4.91 1.46,-12.55 8.37,-17.43 0.28,0 0.69,0 0.69,0.41 0,0.22 -0.1,0.29 -0.34,0.53 -4.64,4.18 -6.35,10.11 -6.35,16.46 0,9.41 3.59,14.01 6.45,16.6 0.14,0.13 0.24,0.24 0.24,0.41 0,0.42 -0.41,0.42 -0.69,0.42 z"
           id="path6442" /><path
           style="fill:#000000;stroke-width:0"
           inkscape:connector-curvature="0"
           d="m 508.58,437.77 3.55,0 c 0.67,0 1.12,0 1.12,0.77 0,0.49 -0.45,0.49 -1.05,0.49 l -3.31,0 1.29,5.16 c 0.03,0.17 0.11,0.35 0.11,0.49 0,0.62 -0.49,1.11 -1.19,1.11 -0.87,0 -1.39,-0.59 -1.64,-1.5 -0.24,-0.87 0.21,0.81 -1.32,-5.26 l -3.56,0 c -0.66,0 -1.12,0 -1.12,-0.77 0,-0.49 0.42,-0.49 1.05,-0.49 l 3.31,0 -2.05,-8.23 c -0.21,-0.87 -0.53,-2.12 -0.53,-2.58 0,-2.05 1.74,-3.31 3.73,-3.31 3.87,0 6.07,4.88 6.07,5.33 0,0.46 -0.45,0.46 -0.56,0.46 -0.41,0 -0.45,-0.07 -0.73,-0.66 -0.98,-2.2 -2.75,-4.15 -4.67,-4.15 -0.73,0 -1.22,0.45 -1.22,1.71 0,0.34 0.14,1.08 0.21,1.43 z"
           id="path6444" /><path
           style="fill:#000000;stroke-width:0"
           inkscape:connector-curvature="0"
           d="m 518.14,450.15 -0.03,0 -0.02,0 -0.03,0 -0.02,0 -0.03,0 -0.02,0 -0.03,0 -0.03,0 -0.03,-0.01 -0.02,0 -0.03,0 -0.03,-0.01 -0.03,-0.01 -0.02,0 -0.03,-0.01 -0.02,-0.01 -0.03,-0.01 -0.02,-0.01 -0.03,-0.02 -0.02,-0.01 -0.02,-0.02 -0.02,-0.01 -0.02,-0.02 -0.01,-0.01 0,-0.01 -0.01,-0.02 -0.01,-0.01 -0.01,-0.01 0,-0.01 -0.01,-0.02 0,-0.01 -0.01,-0.01 0,-0.02 -0.01,-0.01 0,-0.02 -0.01,-0.02 0,-0.01 0,-0.02 0,-0.02 0,-0.02 0,-0.02 c 0,-0.17 0.1,-0.28 0.31,-0.52 3,-2.75 6.35,-7.46 6.35,-16.46 0,-7.29 -2.27,-12.79 -6.04,-16.21 -0.59,-0.59 -0.62,-0.63 -0.62,-0.81 0,-0.17 0.1,-0.41 0.45,-0.41 0.42,0 3.73,2.3 6.03,6.66 1.54,2.89 2.55,6.66 2.55,10.74 0,4.91 -1.47,12.55 -8.37,17.43 z"
           id="path6446" /></g>    </g>
    <g
       id="g6532"
       transform="translate(-223.41086,105.46225)">
      <g
         word-spacing="normal"
         letter-spacing="normal"
         font-size-adjust="none"
         font-stretch="normal"
         font-weight="normal"
         font-variant="normal"
         font-style="normal"
         stroke-miterlimit="10.433"
         xml:space="preserve"
         transform="matrix(1.0629921,0,0,-1.0629921,-186.02362,789.27165)"
         id="g6534"
         style="font-style:normal;font-variant:normal;font-weight:normal;font-stretch:normal;letter-spacing:normal;word-spacing:normal;text-anchor:start;fill:none;fill-opacity:1;fill-rule:evenodd;stroke:#000000;stroke-linecap:butt;stroke-linejoin:miter;stroke-miterlimit:10.43299961;stroke-dasharray:none;stroke-dashoffset:0;stroke-opacity:1"><path
           id="path6536"
           d="m 472.64,421.04 0.03,0.13 0.03,0.15 0.05,0.17 0.04,0.18 0.06,0.19 0.06,0.21 0.06,0.21 0.07,0.23 0.08,0.23 0.09,0.24 0.1,0.25 0.1,0.24 0.11,0.25 0.12,0.25 0.13,0.25 0.14,0.25 0.15,0.24 0.15,0.24 0.17,0.23 0.18,0.22 0.18,0.22 0.2,0.2 0.21,0.19 0.22,0.18 0.23,0.16 0.25,0.14 0.12,0.07 0.13,0.06 0.13,0.05 0.14,0.05 0.14,0.05 0.14,0.04 0.14,0.03 0.15,0.03 0.15,0.02 0.16,0.02 0.16,0.01 0.16,0 c 0.25,0 1.45,0 2.49,-0.65 -1.4,-0.25 -2.39,-1.49 -2.39,-2.68 0,-0.8 0.54,-1.75 1.89,-1.75 1.1,0 2.69,0.9 2.69,2.89 0,2.59 -2.94,3.29 -4.63,3.29 -2.89,0 -4.64,-2.64 -5.23,-3.79 -1.25,3.29 -3.94,3.79 -5.38,3.79 -5.18,0 -8.02,-6.43 -8.02,-7.67 0,-0.5 0.5,-0.5 0.6,-0.5 0.39,0 0.54,0.1 0.64,0.54 1.7,5.29 4.98,6.53 6.68,6.53 0.95,0 2.69,-0.45 2.69,-3.33 0,-1.55 -0.85,-4.89 -2.69,-11.86 -0.8,-3.09 -2.54,-5.18 -4.73,-5.18 -0.3,0 -1.45,0 -2.49,0.65 1.24,0.25 2.34,1.29 2.34,2.69 0,1.34 -1.1,1.74 -1.85,1.74 -1.49,0 -2.73,-1.3 -2.73,-2.89 0,-2.29 2.48,-3.29 4.68,-3.29 3.28,0 5.08,3.49 5.23,3.79 0.6,-1.85 2.39,-3.79 5.38,-3.79 5.13,0 7.97,6.43 7.97,7.67 0,0.5 -0.45,0.5 -0.6,0.5 -0.45,0 -0.55,-0.2 -0.65,-0.55 -1.64,-5.33 -5.03,-6.52 -6.62,-6.52 -1.95,0 -2.74,1.59 -2.74,3.29 0,1.09 0.29,2.19 0.85,4.38 z"
           inkscape:connector-curvature="0"
           style="fill:#000000;stroke-width:0" /><path
           id="path6538"
           d="m 492.58,412.77 3.55,0 c 0.67,0 1.12,0 1.12,0.77 0,0.49 -0.45,0.49 -1.05,0.49 l -3.31,0 1.29,5.16 c 0.03,0.17 0.11,0.35 0.11,0.49 0,0.62 -0.49,1.11 -1.19,1.11 -0.87,0 -1.39,-0.59 -1.64,-1.5 -0.24,-0.87 0.21,0.81 -1.32,-5.26 l -3.56,0 c -0.66,0 -1.12,0 -1.12,-0.77 0,-0.49 0.42,-0.49 1.05,-0.49 l 3.31,0 -2.05,-8.23 c -0.21,-0.87 -0.53,-2.12 -0.53,-2.58 0,-2.05 1.74,-3.31 3.73,-3.31 3.87,0 6.07,4.88 6.07,5.33 0,0.46 -0.45,0.46 -0.56,0.46 -0.41,0 -0.45,-0.07 -0.73,-0.66 -0.98,-2.2 -2.75,-4.15 -4.67,-4.15 -0.73,0 -1.22,0.45 -1.22,1.71 0,0.34 0.14,1.08 0.21,1.43 z"
           inkscape:connector-curvature="0"
           style="fill:#000000;stroke-width:0" /></g>    </g>
    <g
       id="g6740"
       transform="translate(275.77164,107.48023)">
      <g
         word-spacing="normal"
         letter-spacing="normal"
         font-size-adjust="none"
         font-stretch="normal"
         font-weight="normal"
         font-variant="normal"
         font-style="normal"
         stroke-miterlimit="10.433"
         xml:space="preserve"
         transform="matrix(1.0629921,0,0,-1.0629921,-186.02362,789.27165)"
         id="g6742"
         style="font-style:normal;font-variant:normal;font-weight:normal;font-stretch:normal;letter-spacing:normal;word-spacing:normal;text-anchor:start;fill:none;fill-opacity:1;fill-rule:evenodd;stroke:#000000;stroke-linecap:butt;stroke-linejoin:miter;stroke-miterlimit:10.43299961;stroke-dasharray:none;stroke-dashoffset:0;stroke-opacity:1"><polygon
           id="polygon6744"
           points="471.45,440.57 464.78,433.8 465.68,432.9 471.45,437.98 477.18,432.9 478.08,433.8 "
           style="fill:#000000;stroke-width:0" /><path
           id="path6746"
           d="m 480.21,424.98 0.01,0.03 0.01,0.03 0.01,0.03 0.01,0.03 0.01,0.06 0.02,0.05 0.01,0.06 0.01,0.04 0.02,0.05 0.01,0.04 0.01,0.04 0.01,0.04 0,0.04 0.01,0.04 0.01,0.03 0,0.03 0.01,0.03 0.01,0.03 0,0.03 0,0.03 0.01,0.03 0,0.02 0,0.06 0.01,0.05 0,0.05 0,0.05 0,0.03 0,0.03 0,0.03 0,0.03 c 0,0.9 -0.7,1.35 -1.45,1.35 -0.5,0 -1.29,-0.3 -1.74,-1.05 -0.1,-0.24 -0.5,-1.79 -0.7,-2.69 -0.34,-1.29 -0.7,-2.64 -0.99,-3.98 l -2.24,-8.97 c -0.2,-0.74 -2.34,-4.23 -5.63,-4.23 -2.54,0 -3.09,2.19 -3.09,4.03 0,2.3 0.84,5.38 2.54,9.77 0.8,2.04 1,2.59 1,3.58 0,2.25 -1.6,4.09 -4.09,4.09 -4.73,0 -6.57,-7.23 -6.57,-7.67 0,-0.5 0.49,-0.5 0.59,-0.5 0.5,0 0.55,0.1 0.8,0.9 1.34,4.68 3.34,6.17 5.03,6.17 0.4,0 1.25,0 1.25,-1.59 0,-1.25 -0.5,-2.54 -0.85,-3.49 -1.99,-5.28 -2.89,-8.12 -2.89,-10.46 0,-4.43 3.14,-5.93 6.08,-5.93 1.94,0 3.63,0.85 5.03,2.25 -0.65,-2.6 -1.25,-5.04 -3.24,-7.68 -1.29,-1.69 -3.19,-3.14 -5.48,-3.14 -0.7,0 -2.94,0.16 -3.79,2.1 0.8,0 1.45,0 2.15,0.59 0.49,0.45 0.99,1.1 0.99,2.05 0,1.54 -1.34,1.74 -1.84,1.74 -1.15,0 -2.79,-0.8 -2.79,-3.24 0,-2.49 2.19,-4.33 5.28,-4.33 5.13,0 10.26,4.53 11.66,10.16 z"
           inkscape:connector-curvature="0"
           style="fill:#000000;stroke-width:0" /><path
           id="path6748"
           d="m 488.58,412.77 3.55,0 c 0.67,0 1.12,0 1.12,0.77 0,0.49 -0.45,0.49 -1.05,0.49 l -3.31,0 1.29,5.16 c 0.03,0.17 0.11,0.35 0.11,0.49 0,0.62 -0.49,1.11 -1.19,1.11 -0.87,0 -1.39,-0.59 -1.64,-1.5 -0.24,-0.87 0.21,0.81 -1.32,-5.26 l -3.56,0 c -0.66,0 -1.12,0 -1.12,-0.77 0,-0.49 0.42,-0.49 1.05,-0.49 l 3.31,0 -2.05,-8.23 c -0.21,-0.87 -0.53,-2.12 -0.53,-2.58 0,-2.05 1.74,-3.31 3.73,-3.31 3.87,0 6.07,4.88 6.07,5.33 0,0.46 -0.45,0.46 -0.56,0.46 -0.41,0 -0.45,-0.07 -0.73,-0.66 -0.98,-2.2 -2.75,-4.15 -4.67,-4.15 -0.73,0 -1.22,0.45 -1.22,1.71 0,0.34 0.14,1.08 0.21,1.43 z"
           inkscape:connector-curvature="0"
           style="fill:#000000;stroke-width:0" /></g>    </g>
    <g
       id="g6352"
       transform="translate(134.05045,74.246211)">
      <g
         word-spacing="normal"
         letter-spacing="normal"
         font-size-adjust="none"
         font-stretch="normal"
         font-weight="normal"
         font-variant="normal"
         font-style="normal"
         stroke-miterlimit="10.433"
         xml:space="preserve"
         transform="matrix(1.0629921,0,0,-1.0629921,-186.02362,789.27165)"
         id="g6354"
         style="font-style:normal;font-variant:normal;font-weight:normal;font-stretch:normal;letter-spacing:normal;word-spacing:normal;text-anchor:start;fill:none;fill-opacity:1;fill-rule:evenodd;stroke:#000000;stroke-linecap:butt;stroke-linejoin:miter;stroke-miterlimit:10.43299961;stroke-dasharray:none;stroke-dashoffset:0;stroke-opacity:1"><path
           id="path6356"
           d="m 501.68,434.24 0.23,0.41 0.24,0.39 0.24,0.39 0.25,0.37 0.12,0.17 0.13,0.18 0.14,0.17 0.14,0.16 0.14,0.16 0.14,0.16 0.15,0.15 0.16,0.14 0.16,0.14 0.17,0.13 0.17,0.13 0.18,0.12 0.19,0.11 0.2,0.11 0.2,0.1 0.21,0.09 0.22,0.09 0.23,0.07 0.23,0.07 0.25,0.06 0.26,0.06 0.26,0.04 0.28,0.04 0.29,0.03 c 0.45,0.05 0.94,0.05 0.94,0.99 0,0.2 -0.2,0.55 -0.59,0.55 l -9.02,0 c -0.3,0 -0.95,0 -0.95,-0.95 0,-0.54 0.45,-0.59 0.75,-0.59 1.2,-0.05 2.94,-0.45 2.94,-1.94 0,-0.55 -0.25,-0.95 -0.65,-1.65 l -13.45,-23.46 -1.84,24.71 c -0.05,0.99 -0.15,2.29 3.49,2.34 0.84,0 1.34,0 1.34,0.99 0,0.5 -0.55,0.55 -0.75,0.55 l -11.3,0 c -0.3,0 -0.95,0 -0.95,-0.99 0,-0.55 0.5,-0.55 1.19,-0.55 2.2,0 2.55,-0.3 2.64,-1.25 l 0.31,-3.83 -12.61,-21.97 -1.89,25.25 c 0,0.6 0,1.75 3.78,1.8 0.5,0 1.05,0 1.05,0.99 0,0.55 -0.6,0.55 -0.7,0.55 l -11.35,0 c -0.25,0 -0.9,0 -0.9,-0.95 0,-0.59 0.45,-0.59 1.24,-0.59 2.5,0 2.55,-0.45 2.64,-1.84 l 2.25,-30.44 c 0.05,-0.9 0.09,-1.3 0.79,-1.3 0.6,0 0.75,0.3 1.2,1.05 l 14.64,25.41 1.85,-25.16 c 0.1,-1.05 0.2,-1.3 0.79,-1.3 0.65,0 0.95,0.5 1.2,0.95 z"
           inkscape:connector-curvature="0"
           style="fill:#000000;stroke-width:0" /><path
           id="path6358"
           d="m 518.31,420.79 0,0.06 -0.01,0.06 0,0.05 -0.01,0.06 -0.01,0.06 -0.02,0.06 -0.02,0.05 -0.02,0.06 -0.02,0.06 -0.03,0.05 -0.02,0.06 -0.03,0.05 -0.04,0.06 -0.03,0.05 -0.04,0.05 -0.05,0.05 -0.04,0.04 -0.05,0.05 -0.05,0.04 -0.05,0.04 -0.06,0.04 -0.06,0.04 -0.06,0.03 -0.06,0.03 -0.07,0.03 -0.07,0.03 -0.07,0.02 -0.08,0.01 -0.07,0.02 -0.09,0.01 -0.08,0 -0.09,0.01 c -1.01,0 -1.95,-0.98 -1.95,-1.92 0,-0.56 0.42,-1.32 1.39,-1.32 0.95,0 1.96,0.9 1.96,1.91 z"
           inkscape:connector-curvature="0"
           style="fill:#000000;stroke-width:0" /><path
           id="path6360"
           d="m 510.91,397.29 -0.05,-0.22 -0.07,-0.22 -0.07,-0.22 -0.08,-0.22 -0.09,-0.21 -0.09,-0.21 -0.1,-0.2 -0.11,-0.2 -0.11,-0.2 -0.12,-0.19 -0.12,-0.19 -0.13,-0.18 -0.13,-0.17 -0.14,-0.17 -0.14,-0.16 -0.14,-0.15 -0.16,-0.15 -0.15,-0.14 -0.16,-0.13 -0.16,-0.13 -0.17,-0.12 -0.17,-0.1 -0.17,-0.1 -0.18,-0.09 -0.17,-0.08 -0.18,-0.07 -0.19,-0.07 -0.18,-0.05 -0.19,-0.03 -0.19,-0.03 -0.19,-0.02 -0.19,-0.01 c -0.46,0 -0.87,0.07 -1.26,0.21 0.91,0.42 1.19,1.26 1.19,1.78 0,0.84 -0.67,1.29 -1.36,1.29 -1.08,0 -1.99,-0.94 -1.99,-2.06 0,-1.32 1.36,-2.19 3.45,-2.19 2.09,0 6.17,1.25 7.25,5.5 l 3.14,12.49 c 0.11,0.38 0.18,0.7 0.18,1.22 0,1.92 -1.64,3.28 -3.74,3.28 -3.87,0 -6.1,-4.85 -6.1,-5.34 0,-0.45 0.49,-0.45 0.6,-0.45 0.42,0 0.45,0.11 0.69,0.62 0.88,2.03 2.69,4.19 4.71,4.19 0.87,0 1.19,-0.59 1.19,-1.71 0,-0.38 -0.07,-0.87 -0.11,-1.05 z"
           inkscape:connector-curvature="0"
           style="fill:#000000;stroke-width:0" /><path
           id="path6362"
           d="m 531.91,422.15 0.01,0.01 0,0 0,0 0,0.01 0,0.01 0.01,0 0,0.01 0,0 0,0.02 0.01,0.02 0.01,0.02 0,0.01 0.01,0.02 0,0.03 0.01,0.02 0,0.02 0.01,0.02 0.01,0.03 0.01,0.04 0.01,0.05 0,0.03 0.01,0.02 0,0.02 0.01,0.02 0,0.02 0.01,0.02 0,0.02 0,0.01 0.01,0.01 0,0.01 0,0 0,0.01 0,0.01 0,0 0,0.01 0,0 0,0 0,0.01 0,0 0,0 c 0,0.18 -0.14,0.49 -0.55,0.49 -0.7,0 -3.6,-0.28 -4.47,-0.35 -0.28,-0.03 -0.76,-0.07 -0.76,-0.8 0,-0.49 0.48,-0.49 0.9,-0.49 1.67,0 1.67,-0.24 1.67,-0.52 0,-0.25 -0.06,-0.46 -0.13,-0.77 l -4.92,-19.73 c -0.18,-0.63 -0.18,-0.7 -0.18,-0.77 0,-0.53 0.42,-1.12 1.19,-1.12 0.94,0 1.4,0.7 1.61,1.47 0.06,0.13 1.56,6.27 1.7,6.76 2.48,-0.24 4.47,-1.04 4.47,-2.86 0,-0.17 0,-0.35 -0.07,-0.7 -0.14,-0.52 -0.14,-0.7 -0.14,-1.08 0,-2.47 2.02,-3.59 3.69,-3.59 3.39,0 4.43,5.3 4.43,5.33 0,0.46 -0.45,0.46 -0.56,0.46 -0.48,0 -0.52,-0.17 -0.69,-0.84 -0.42,-1.5 -1.36,-3.97 -3.07,-3.97 -0.94,0 -1.22,0.87 -1.22,1.81 0,0.6 0,0.66 0.21,1.57 0.03,0.1 0.17,0.7 0.17,1.08 0,3.11 -4.18,3.59 -5.65,3.7 1.02,0.62 2.3,1.78 2.9,2.3 1.77,1.67 3.52,3.31 5.47,3.31 0.42,0 0.87,-0.1 1.15,-0.45 -1.5,-0.25 -1.81,-1.43 -1.81,-1.95 0,-0.77 0.59,-1.3 1.39,-1.3 0.95,0 1.99,0.77 1.99,2.24 0,1.15 -0.84,2.44 -2.68,2.44 -1.99,0 -3.81,-1.43 -5.58,-3.07 -1.47,-1.4 -2.62,-2.48 -4.05,-3.07 z"
           inkscape:connector-curvature="0"
           style="fill:#000000;stroke-width:0" /></g>    </g>
  </g>
</svg>
